<?xml version="1.0" standalone="no"?>
<!DOCTYPE svg PUBLIC "-//W3C//DTD SVG 20010904//EN"
 "http://www.w3.org/TR/2001/REC-SVG-20010904/DTD/svg10.dtd">
<svg version="1.0" xmlns="http://www.w3.org/2000/svg"
 width="600.000000pt" height="600.000000pt" viewBox="0 0 600.000000 600.000000"
 preserveAspectRatio="xMidYMid meet">
<metadata>
Created by potrace 1.14, written by Peter Selinger 2001-2017
</metadata>
<g transform="translate(0.000000,600.000000) scale(0.100000,-0.100000)"
fill="#000000" stroke="none">
<path d="M2625 5983 c-16 -1 -73 -8 -125 -14 -78 -9 -239 -37 -310 -54 -122
-29 -315 -89 -335 -105 -5 -5 -19 -10 -29 -12 -34 -6 -269 -124 -367 -184
-165 -101 -320 -224 -464 -369 -156 -155 -164 -165 -261 -291 -269 -353 -489
-821 -619 -1319 -38 -146 -80 -357 -90 -455 -4 -36 -9 -74 -12 -85 -3 -11 -6
-126 -8 -255 -2 -224 6 -341 40 -540 16 -95 73 -289 118 -405 219 -565 622
-1001 1245 -1349 244 -136 638 -296 918 -371 30 -8 78 -21 107 -29 65 -18 277
-61 372 -76 100 -16 114 -18 170 -25 28 -3 64 -8 80 -10 17 -3 107 -7 201 -10
147 -5 178 -3 215 11 68 26 122 76 159 146 33 60 34 68 35 168 0 58 -3 117 -7
131 -10 43 -67 127 -106 157 -86 68 -138 87 -272 97 -47 3 -114 10 -150 15
-36 5 -87 12 -115 15 -159 21 -449 89 -620 147 -758 255 -1271 686 -1478 1239
-84 224 -116 424 -112 694 2 88 5 176 8 195 3 19 9 58 12 85 31 235 129 582
231 815 71 162 237 450 303 526 10 12 22 28 27 37 32 56 219 245 334 339 198
162 494 311 695 352 11 3 43 10 70 16 71 17 76 18 136 25 169 22 424 27 539
11 243 -35 392 -70 605 -141 698 -233 1169 -626 1377 -1150 56 -141 88 -275
103 -430 8 -75 7 -291 -1 -354 -25 -208 -66 -379 -140 -592 -261 -753 -529
-1081 -816 -1000 -100 28 -169 121 -170 228 0 77 18 139 253 836 132 392 269
800 305 907 54 160 66 207 66 260 0 99 -31 171 -107 245 -60 60 -64 62 -215
112 -85 29 -167 50 -181 49 -62 -9 -89 -38 -119 -128 -12 -40 -27 -68 -35 -68
-8 0 -20 23 -29 53 -69 238 -492 513 -881 573 -11 2 -44 7 -74 12 -118 20
-335 10 -504 -23 -76 -15 -204 -63 -312 -116 -339 -167 -612 -483 -764 -884
-13 -33 -27 -69 -31 -80 -32 -77 -88 -290 -106 -405 -3 -19 -7 -42 -9 -50 -17
-63 -24 -292 -12 -405 15 -137 22 -174 52 -280 136 -481 537 -830 1080 -941
99 -20 378 -26 470 -10 144 24 279 85 365 163 14 13 29 22 34 20 5 -2 9 -48 8
-103 0 -55 4 -120 9 -145 29 -125 132 -257 260 -332 218 -128 613 -206 874
-173 485 61 889 437 1181 1100 108 246 228 627 260 830 3 21 8 48 10 60 5 27
14 92 24 186 8 77 5 478 -5 540 -50 336 -120 563 -251 815 -73 143 -200 337
-269 411 -5 6 -29 33 -52 60 -229 269 -582 531 -948 704 -302 142 -697 271
-1032 334 -12 3 -71 12 -130 20 -59 8 -126 18 -148 21 -45 7 -484 14 -530 8z
m505 -2108 c168 -40 357 -140 452 -237 63 -64 119 -168 137 -253 10 -50 8
-235 -4 -310 -10 -62 -52 -216 -86 -313 -200 -567 -512 -747 -991 -572 -132
48 -279 139 -324 200 -7 8 -22 26 -34 40 -35 40 -98 179 -115 255 -9 38 -18
111 -19 163 -2 83 0 120 18 252 20 141 103 354 188 477 109 159 290 282 460
312 69 13 236 5 318 -14z"/>
</g>
</svg>
