<svg fill="none" height="171.467337" viewBox="0 0 8782 2582" width="583.201453" xmlns="http://www.w3.org/2000/svg"><g fill="#232426"><path d="m4750.55 344.437c-.24-46.089 17.59-90.437 49.67-123.535 32.08-33.097 75.84-52.31 121.92-53.52 46.79.546 91.5 19.375 124.59 52.462s51.92 77.805 52.46 124.593c-1.1 46.11-20.28 89.939-53.4 122.038-33.12 32.098-77.53 49.894-123.65 49.55-45.37-.439-88.76-18.657-120.85-50.742-32.08-32.084-50.3-75.474-50.74-120.846zm1373.54 373.456c84.11 0 137.95 46.682 137.95 148.457-9.5 99.298-34.03 196.58-72.76 288.5-67.71 182.1-137.94 390.28-213.64 627.06-33.65-114.4-98.84-294.4-179.58-504.67l-70.24-192.62c-32.47-77.85-52.61-160.29-59.72-244.345-2.2-15.461-1.1-31.212 3.22-46.218 4.33-15.007 11.78-28.927 21.87-40.846 10.09-11.918 22.59-21.565 36.68-28.305s29.44-10.42 45.06-10.798v-34.065h-588.79v34.065c80.33 7.57 145.52 84.111 231.31 312.052l374.72 991.26c24.69 56.2 36.13 117.33 33.44 178.66-2.7 61.32-19.47 121.21-49 175.03-42.06 93.78-104.3 140.46-177.06 140.46-90.84 0-137.94-39.11-137.94-119.43 0-31.55 60.14-93.79 60.14-153.51 0-84.11-65.19-122.38-137.94-122.38-23.07-.8-46.05 3.3-67.41 12.04-21.37 8.74-40.64 21.91-56.54 38.64-15.89 16.74-28.06 36.65-35.7 58.44-7.63 21.78-10.55 44.94-8.58 67.93 3.4 79.55 38.11 154.52 96.57 208.57s135.92 82.79 215.49 79.94c38.76 1.33 77.4-5 113.7-18.64s69.55-34.32 97.84-60.85c31.12-23.13 70.23-103.88 91.26-142.99 15.66-30.97 28.75-63.18 39.11-96.31 18.09-44.15 28.6-80.32 36.17-103.87 7.57-23.56 23.55-62.67 42.06-122.39l42.05-132.47c111.87-348.65 218.69-653.13 320.05-910.511 59.72-148.457 137.94-236.774 177.05-254.858 21.02-11.424 43.74-19.376 67.29-23.551v-34.066h-428.13zm-4107.17 1230.557c-75.7-13.04-140.47-80.75-140.47-223.74v-1724.289452l-428.96 92.943352v36.5881c72.75-7.99 145.93 57.196 145.93 195.139v1399.619c0 135.42-73.18 213.22-145.93 223.74l-20.61 2.52c-37.22 2.66-74.51-3.98-108.51-19.35-61.9-28.44-113.27-75.68-146.77-135l-198.925-319.62c-41.861-66.92-104.264-118.49-177.875-147-73.611-28.5-154.472-32.41-230.487-11.13l223.737-247.29c168.223-187.146 325.51-307.005 473.55-356.21v-34.066h-490.793v34.066c126.167 49.205 119.859 158.55-26.075 330.14l-314.577 367.15v-1412.66l-429.390352 93.3639v36.5881c72.756552 0 145.933352 72.757 145.933352 200.186v1394.572c0 153.5-70.2329 213.22-145.933352 223.74v33.64h569.856352v-33.64c-93.784-13.04-140.466-84.12-140.466-223.74v-257.38l122.382-133.32 296.494 486.59c70.233 116.91 134.999 163.59 239.299 163.59h989.99v-26.49s-28.6-3.79-61.4-9.25zm1320.55 3.78v34.07s-291.86 104.72-380.18-73.18c-23.54-46.94-36.46-98.49-37.85-150.98-40.12 77.58-101 142.49-175.85 187.49-74.86 45-160.74 68.32-248.07 67.37-210.28 0-361.68-98.83-361.68-315-.13-54.75 16.29-108.25 47.1-153.5 62.24-93.37 135-142.99 270.42-195.14 67.71-25.66 126.17-44.16 168.22-57.2 42.06-13.04 101.36-26.07 168.22-38.69l131.64-31.54v-156.03c0-259.905-111.87-378.502-267.9-378.502-122.38 0-192.61 80.747-192.61 174.531 0 51.729 36.59 126.168 36.59 182.101 0 72.76-65.19 126.17-156.03 126.17s-135-70.23-135-164.02c0-93.784 46.68-179.578 142.99-252.334 91.44-70.931 203.9-109.402 319.62-109.345 365.47 0 524.86 173.27 530.75 553.879v572.8 7.99c1.26 37.43 11.77 189.67 139.62 169.06zm-418.03-687.19c-15.56 7.99-51.73 21.03-111.87 42.05l-119.44 44.16c-30.28 14.3-52.15 26.08-96.31 49.63-34 16.21-64.89 38.27-91.26 65.19-44.02 49.64-69.7 112.87-72.75 179.15 0 153.51 84.11 236.78 210.28 236.78 69.44-2.17 135.88-28.84 187.56-75.28 30.26-24.41 54.47-55.49 70.73-90.79 16.27-35.31 24.16-73.9 23.06-112.76zm4817.49 68.97c1.21 89.72-15.42 178.79-48.92 262.03s-83.2 159-146.22 222.87c-59.79 63.34-131.88 113.8-211.87 148.28-79.98 34.49-166.16 52.28-253.26 52.28s-173.29-17.79-253.27-52.28c-79.98-34.48-152.08-84.94-211.87-148.28-125.88-129.78-195.28-304.11-193.04-484.9-1.34-89.12 15.03-177.61 48.17-260.35 33.13-82.733 82.38-158.061 144.87-221.609 59.37-64.054 131.33-115.156 211.37-150.103 80.04-34.946 166.43-52.985 253.77-52.985 87.33 0 173.73 18.039 253.77 52.985 80.04 34.947 152 86.049 211.36 150.103 63.2 63.134 113.05 138.341 146.57 221.139 33.53 82.8 50.05 171.5 48.57 260.82zm-425.18-462.613c-51.73-100.934-119.44-159.813-198.5-175.794-161.08-32.383-303.23 132.897-356.22 396.167-22.86 118-28.38 238.71-16.4 358.31 11.42 120.5 44.62 237.92 97.99 346.54 51.73 100.52 119.44 159.4 198.92 175.38 160.66 32.38 307.01-140.05 360.42-405.84 45-224.16 21.45-494.58-86.21-694.763zm-2238.63 853.313v-1043.406h-915.56v31.542c122.38 18.084 180.42 110.186 126.17 259.905-287.66 778.029-270.84 743.129-287.66 805.369-18.09-59.72-59.72-206.91-126.17-391.54-66.45-184.62-111.87-307.01-129.95-361.68-70.24-215.746-46.68-294.39 67.71-309.53v-34.066h-593.83v34.066c88.74 18.084 168.22 119.438 231.73 301.54l90.84 236.77c100.09 255.7 217.85 608.97 256.96 728.41h197.24c63.51-184.62 318.36-925.23 352.43-998.825 28.54-72.85 71.45-139.213 126.17-195.139 47.6-45.749 110.62-72.007 176.63-73.598 18.7-1.373 37.48 1.213 55.11 7.591 17.63 6.377 33.72 16.403 47.22 29.421 13.49 13.018 24.09 28.736 31.1 46.128 7 17.392 10.26 36.066 9.56 54.803v116.916 3.364 751.959c0 145.51-70.23 213.22-143.41 223.74v33.64h567.33v-33.64c-77.38-10.52-139.62-78.23-139.62-223.74z"/><path d="m8651.28 0h-995.04v681.304h995.04l-196.4-340.652z"/><path d="m8705.83 633.361v47.943h-5.04v-47.943h-19.77v-4.627h42.06v4.627z"/><path d="m8754.99 681.304-18.09-45.42v45.42h-4.62v-52.57h6.73l18.08 45.841 18.09-45.841h6.72v52.57h-5.04v-45.42l-17.67 45.42z"/></g></svg>